<svg data-v-fde0c5aa="" xmlns="http://www.w3.org/2000/svg" viewBox="0 0 300 300" class="iconLeftSlogan"><!----><defs data-v-fde0c5aa=""><!----></defs><rect data-v-fde0c5aa="" fill="transparent" x="0" y="0" width="300px" height="300px" class="logo-background-square"></rect><defs data-v-fde0c5aa=""><!----></defs><g data-v-fde0c5aa="" id="b8b1c7c5-b270-4bb7-8073-ba850b7399ff" fill="#ffffff" transform="matrix(1.7695589065551758,0,0,1.7695589065551758,137.05104244428233,128.48017087109852)"><path d="M3.92 13.02C5.71 13.02 7.16 11.95 7.16 10.12C7.16 6.54 2.05 7.42 2.05 4.92C2.05 3.87 2.91 3.36 3.89 3.36C4.69 3.36 5.36 3.69 5.78 4.29L6.65 3.55C6.07 2.82 5.06 2.24 3.85 2.24C2.24 2.24 0.93 3.29 0.93 5.00C0.93 8.38 6.04 7.54 6.04 10.15C6.04 11.27 5.11 11.90 3.94 11.90C2.75 11.90 1.89 11.25 1.52 10.29L0.51 10.89C1.05 12.18 2.36 13.02 3.92 13.02ZM11.73 5.74C11.08 5.74 10.48 6.00 10.03 6.44L10.03 5.88L8.94 5.88L8.94 12.88L10.03 12.88L10.03 8.42C10.03 7.53 10.75 6.83 11.64 6.83C12.53 6.83 13.23 7.53 13.23 8.42L13.23 12.88L14.32 12.88L14.32 8.42C14.32 6.93 13.07 5.74 11.73 5.74ZM19.93 13.02C21.95 13.02 23.57 11.39 23.57 9.38C23.57 7.37 21.95 5.74 19.93 5.74C17.92 5.74 16.29 7.37 16.29 9.38C16.29 11.39 17.92 13.02 19.93 13.02ZM19.93 11.94C18.52 11.94 17.38 10.80 17.38 9.38C17.38 7.96 18.52 6.83 19.93 6.83C21.33 6.83 22.49 7.96 22.49 9.38C22.49 10.80 21.33 11.94 19.93 11.94ZM34.27 5.88L32.41 11.62L30.50 5.88L29.47 5.88L27.56 11.59L25.74 5.88L24.52 5.88L26.93 12.88L28.12 12.88L30.00 7.39L31.85 12.88L33.04 12.88L35.44 5.88ZM40.64 2.38L36.87 2.38L36.87 12.88L37.99 12.88L37.99 8.21L40.64 8.21C42.26 8.21 43.56 6.93 43.56 5.30C43.56 3.69 42.26 2.38 40.64 2.38ZM40.53 7.14L37.99 7.14L37.99 3.46L40.53 3.46C41.58 3.46 42.44 4.20 42.44 5.32C42.44 6.48 41.58 7.14 40.53 7.14ZM51.92 9.31C51.87 7.30 50.28 5.74 48.28 5.74C46.27 5.74 44.64 7.37 44.64 9.38C44.64 11.39 46.27 13.02 48.28 13.02C49.95 13.02 51.33 11.92 51.78 10.41L50.63 10.41C50.24 11.32 49.33 11.94 48.28 11.94C46.90 11.94 45.80 10.89 45.73 9.54L51.91 9.54ZM48.28 6.83C49.40 6.83 50.35 7.54 50.68 8.56L45.87 8.56C46.22 7.54 47.16 6.83 48.28 6.83ZM61.42 11.97C61.04 11.97 60.71 11.71 60.71 11.06L60.71 5.88L59.62 5.88L59.62 6.79C58.98 6.14 58.06 5.74 57.07 5.74C55.05 5.74 53.43 7.37 53.43 9.38C53.43 11.39 55.05 13.02 57.07 13.02C58.12 13.02 59.06 12.53 59.73 11.81C59.95 12.53 60.52 13.02 61.34 13.02C61.53 13.02 61.72 12.97 61.86 12.88L61.86 11.97ZM57.07 11.94C55.65 11.94 54.51 10.80 54.51 9.38C54.51 7.96 55.65 6.83 57.07 6.83C58.47 6.83 59.62 7.96 59.62 9.38C59.62 10.80 58.47 11.94 57.07 11.94ZM69.48 12.88L65.92 9.00L69.18 5.88L67.73 5.88L64.54 8.94L64.54 0L63.46 0L63.46 12.88L64.54 12.88L64.54 8.98L67.99 12.88Z"></path></g><defs data-v-fde0c5aa=""><linearGradient data-v-fde0c5aa="" gradientTransform="rotate(25)" id="1e1e2bcd-d81a-482b-970a-67dcbb0205c5" x1="0%" y1="0%" x2="100%" y2="0%"><stop data-v-fde0c5aa="" offset="0%" stop-color="#395ECA" stop-opacity="1"></stop><stop data-v-fde0c5aa="" offset="100%" stop-color="#848BD8" stop-opacity="1"></stop></linearGradient></defs><g data-v-fde0c5aa="" id="6e114d31-1e1a-477e-a686-ba0860f61f11" stroke="none" fill="url(#1e1e2bcd-d81a-482b-970a-67dcbb0205c5)" transform="matrix(1.0082510709762573,0,0,1.0082510709762573,32.06430739310347,99.58644335494805)"><path d="M76.546 73.604H31.05c-1.555 0-2.822-.65-3.479-1.785-.653-1.135-.584-2.557.193-3.902l22.748-39.4c.778-1.346 1.975-2.119 3.285-2.119 1.309 0 2.506.773 3.284 2.119l22.747 39.4c.777 1.348.848 2.77.193 3.902-.653 1.134-1.92 1.785-3.475 1.785zM31.11 69.775h45.375L53.798 30.479 31.11 69.775z"></path><path d="M36.216 73.604H11.794c-1.557 0-2.822-.65-3.479-1.785-.653-1.135-.584-2.557.193-3.902l14.795-25.623c.775-1.348 1.975-2.119 3.283-2.119s2.506.771 3.283 2.119l8.002 13.857-3.314 1.912-7.971-13.805-14.734 25.52h24.362l.002 3.826zM88.207 73.604H72.323v-3.826h15.824l-9.166-15.875-3.797 6.576-3.313-1.914 3.827-6.627c.777-1.348 1.975-2.119 3.283-2.119 1.31 0 2.508.771 3.283 2.119l9.227 15.979c.777 1.348.848 2.77.193 3.902-.656 1.134-1.921 1.785-3.477 1.785zM47.413 54.385a3.1 3.1 0 01-1.688-.49l-5.561-3.607 2.081-3.211 5.041 3.27 4.733-5.729a3.01 3.01 0 014.217-.412l4.609 3.768 3.1-3.383 2.822 2.584-3.588 3.918a3.069 3.069 0 01-4.195.303l-4.535-3.709-4.607 5.576a3.16 3.16 0 01-2.429 1.122z"></path></g><defs data-v-fde0c5aa=""><!----></defs><g data-v-fde0c5aa="" id="74b6a1a8-0646-47b2-8f67-84376d6c1d8e" fill="#ffffff" transform="matrix(0.6363879442214966,0,0,0.6363879442214966,137.1389409160004,160.09432008870277)"><path d="M6.46 7.56C7.39 7.14 8.00 6.30 8.00 5.18C8.00 3.54 6.70 2.38 5.09 2.38L1.28 2.38L1.28 12.88L5.46 12.88C7.05 12.88 8.33 11.74 8.33 10.12C8.33 8.84 7.56 7.93 6.46 7.56ZM6.88 5.27C6.88 6.30 6.02 7.09 4.97 7.09L2.38 7.09L2.38 3.50L4.97 3.50C6.02 3.50 6.88 4.23 6.88 5.27ZM5.32 11.76L2.38 11.76L2.38 8.17L5.32 8.17C6.35 8.17 7.21 8.96 7.21 9.99C7.21 11.03 6.35 11.76 5.32 11.76ZM14.32 13.02C16.61 13.02 18.27 11.50 18.27 9.43L18.27 2.38L17.15 2.38L17.15 9.26C17.15 10.78 15.94 11.90 14.32 11.90C12.69 11.90 11.50 10.78 11.50 9.26L11.50 2.38L10.38 2.38L10.38 9.43C10.38 11.50 12.04 13.02 14.32 13.02ZM20.86 12.88L21.98 12.88L21.98 2.38L20.86 2.38ZM25.73 11.76L25.73 2.38L24.61 2.38L24.61 12.88L29.63 12.88L29.63 11.76ZM31.06 12.88L33.93 12.88C36.82 12.88 39.18 10.54 39.18 7.63C39.18 4.72 36.82 2.38 33.93 2.38L31.06 2.38ZM32.17 11.76L32.17 3.50L33.92 3.50C36.24 3.50 38.06 5.27 38.06 7.63C38.06 9.99 36.24 11.76 33.92 11.76ZM50.72 7.56C51.64 7.14 52.26 6.30 52.26 5.18C52.26 3.54 50.96 2.38 49.35 2.38L45.54 2.38L45.54 12.88L49.72 12.88C51.31 12.88 52.59 11.74 52.59 10.12C52.59 8.84 51.82 7.93 50.72 7.56ZM51.14 5.27C51.14 6.30 50.28 7.09 49.23 7.09L46.64 7.09L46.64 3.50L49.23 3.50C50.28 3.50 51.14 4.23 51.14 5.27ZM49.58 11.76L46.64 11.76L46.64 8.17L49.58 8.17C50.61 8.17 51.47 8.96 51.47 9.99C51.47 11.03 50.61 11.76 49.58 11.76ZM60.52 3.46L60.52 2.38L54.78 2.38L54.78 12.88L60.52 12.88L60.52 11.79L55.90 11.79L55.90 8.17L59.92 8.17L59.92 7.09L55.90 7.09L55.90 3.46ZM70.04 2.38L68.65 2.38L65.82 6.74L62.98 2.38L61.58 2.38L65.26 7.91L65.26 12.88L66.38 12.88L66.38 7.89ZM76.02 13.02C79.01 13.02 81.41 10.61 81.41 7.63C81.41 4.65 79.01 2.24 76.02 2.24C73.05 2.24 70.63 4.65 70.63 7.63C70.63 10.61 73.05 13.02 76.02 13.02ZM76.02 11.90C73.66 11.90 71.75 10.01 71.75 7.63C71.75 5.25 73.66 3.36 76.02 3.36C78.40 3.36 80.29 5.25 80.29 7.63C80.29 10.01 78.40 11.90 76.02 11.90ZM91.11 2.38L91.11 11.01L84.61 2.38L83.56 2.38L83.56 12.88L84.68 12.88L84.68 4.25L91.16 12.88L92.21 12.88L92.21 2.38ZM94.76 12.88L97.63 12.88C100.52 12.88 102.88 10.54 102.88 7.63C102.88 4.72 100.52 2.38 97.63 2.38L94.76 2.38ZM95.87 11.76L95.87 3.50L97.62 3.50C99.94 3.50 101.76 5.27 101.76 7.63C101.76 9.99 99.94 11.76 97.62 11.76ZM115.05 2.38L108.12 2.38L108.12 3.50L111.02 3.50L111.02 12.88L112.14 12.88L112.14 3.50L115.05 3.50ZM123.39 2.38L123.39 7.07L117.60 7.07L117.60 2.38L116.48 2.38L116.48 12.88L117.60 12.88L117.60 8.19L123.39 8.19L123.39 12.88L124.51 12.88L124.51 2.38ZM132.90 3.46L132.90 2.38L127.16 2.38L127.16 12.88L132.90 12.88L132.90 11.79L128.28 11.79L128.28 8.17L132.30 8.17L132.30 7.09L128.28 7.09L128.28 3.46ZM142.08 13.02C143.87 13.02 145.32 11.95 145.32 10.12C145.32 6.54 140.21 7.42 140.21 4.92C140.21 3.87 141.07 3.36 142.05 3.36C142.85 3.36 143.52 3.69 143.94 4.29L144.81 3.55C144.24 2.82 143.22 2.24 142.01 2.24C140.40 2.24 139.09 3.29 139.09 5.00C139.09 8.38 144.20 7.54 144.20 10.15C144.20 11.27 143.27 11.90 142.10 11.90C140.91 11.90 140.05 11.25 139.69 10.29L138.67 10.89C139.21 12.18 140.53 13.02 142.08 13.02ZM150.99 13.02C153.28 13.02 154.95 11.50 154.95 9.43L154.95 2.38L153.83 2.38L153.83 9.26C153.83 10.78 152.62 11.90 150.99 11.90C149.36 11.90 148.17 10.78 148.17 9.26L148.17 2.38L147.05 2.38L147.05 9.43C147.05 11.50 148.72 13.02 150.99 13.02ZM166.71 2.38L162.66 11.53L158.64 2.38L157.45 2.38L157.45 12.88L158.57 12.88L158.57 4.59L162.19 12.88L163.12 12.88L166.78 4.62L166.78 12.88L167.88 12.88L167.88 2.38ZM179.69 2.38L175.65 11.53L171.62 2.38L170.43 2.38L170.43 12.88L171.55 12.88L171.55 4.59L175.18 12.88L176.10 12.88L179.76 4.62L179.76 12.88L180.86 12.88L180.86 2.38ZM183.51 12.88L184.63 12.88L184.63 2.38L183.51 2.38ZM193.06 2.38L186.13 2.38L186.13 3.50L189.04 3.50L189.04 12.88L190.16 12.88L190.16 3.50L193.06 3.50Z"></path></g></svg>