<svg data-v-423bf9ae="" xmlns="http://www.w3.org/2000/svg" viewBox="0 0 317.8340958332784 60" class="font"><!----><!----><!----><g data-v-423bf9ae="" id="faa6e250-dd1d-4898-b121-dc885c92dfd8" fill="white" transform="matrix(4.60829496383667,0,0,4.60829496383667,-2.350224018096924,-0.0000012693317330558784)"><path d="M3.92 13.02C5.71 13.02 7.16 11.95 7.16 10.12C7.16 6.54 2.05 7.42 2.05 4.92C2.05 3.87 2.91 3.36 3.89 3.36C4.69 3.36 5.36 3.69 5.78 4.29L6.65 3.55C6.07 2.82 5.06 2.24 3.85 2.24C2.24 2.24 0.93 3.29 0.93 5.00C0.93 8.38 6.04 7.54 6.04 10.15C6.04 11.27 5.11 11.90 3.94 11.90C2.75 11.90 1.89 11.25 1.52 10.29L0.51 10.89C1.05 12.18 2.36 13.02 3.92 13.02ZM11.73 5.74C11.08 5.74 10.48 6.00 10.03 6.44L10.03 5.88L8.94 5.88L8.94 12.88L10.03 12.88L10.03 8.42C10.03 7.53 10.75 6.83 11.64 6.83C12.53 6.83 13.23 7.53 13.23 8.42L13.23 12.88L14.32 12.88L14.32 8.42C14.32 6.93 13.07 5.74 11.73 5.74ZM19.93 13.02C21.95 13.02 23.57 11.39 23.57 9.38C23.57 7.37 21.95 5.74 19.93 5.74C17.92 5.74 16.29 7.37 16.29 9.38C16.29 11.39 17.92 13.02 19.93 13.02ZM19.93 11.94C18.52 11.94 17.38 10.80 17.38 9.38C17.38 7.96 18.52 6.83 19.93 6.83C21.33 6.83 22.49 7.96 22.49 9.38C22.49 10.80 21.33 11.94 19.93 11.94ZM34.27 5.88L32.41 11.62L30.50 5.88L29.47 5.88L27.56 11.59L25.74 5.88L24.52 5.88L26.93 12.88L28.12 12.88L30.00 7.39L31.85 12.88L33.04 12.88L35.44 5.88ZM40.64 2.38L36.87 2.38L36.87 12.88L37.99 12.88L37.99 8.21L40.64 8.21C42.26 8.21 43.56 6.93 43.56 5.30C43.56 3.69 42.26 2.38 40.64 2.38ZM40.53 7.14L37.99 7.14L37.99 3.46L40.53 3.46C41.58 3.46 42.44 4.20 42.44 5.32C42.44 6.48 41.58 7.14 40.53 7.14ZM51.92 9.31C51.87 7.30 50.28 5.74 48.28 5.74C46.27 5.74 44.64 7.37 44.64 9.38C44.64 11.39 46.27 13.02 48.28 13.02C49.95 13.02 51.33 11.92 51.78 10.41L50.63 10.41C50.24 11.32 49.33 11.94 48.28 11.94C46.90 11.94 45.80 10.89 45.73 9.54L51.91 9.54ZM48.28 6.83C49.40 6.83 50.35 7.54 50.68 8.56L45.87 8.56C46.22 7.54 47.16 6.83 48.28 6.83ZM61.42 11.97C61.04 11.97 60.71 11.71 60.71 11.06L60.71 5.88L59.62 5.88L59.62 6.79C58.98 6.14 58.06 5.74 57.07 5.74C55.05 5.74 53.43 7.37 53.43 9.38C53.43 11.39 55.05 13.02 57.07 13.02C58.12 13.02 59.06 12.53 59.73 11.81C59.95 12.53 60.52 13.02 61.34 13.02C61.53 13.02 61.72 12.97 61.86 12.88L61.86 11.97ZM57.07 11.94C55.65 11.94 54.51 10.80 54.51 9.38C54.51 7.96 55.65 6.83 57.07 6.83C58.47 6.83 59.62 7.96 59.62 9.38C59.62 10.80 58.47 11.94 57.07 11.94ZM69.48 12.88L65.92 9.00L69.18 5.88L67.73 5.88L64.54 8.94L64.54 0L63.46 0L63.46 12.88L64.54 12.88L64.54 8.98L67.99 12.88Z"></path></g><!----><!----></svg>