<svg version="1.2" xmlns="http://www.w3.org/2000/svg" viewBox="0 0 300 300" width="512" height="512">
	<title>default</title>
	<defs>
		<linearGradient id="g1" x2="1" gradientUnits="userSpaceOnUse" gradientTransform="matrix(189.913,0,0,168.076,68.561,66)">
			<stop offset="0" stop-color="#395eca"/>
			<stop offset="1" stop-color="#848bd8"/>
		</linearGradient>
		<linearGradient id="g2" x2="1" gradientUnits="userSpaceOnUse" gradientTransform="matrix(300,0,0,119.024,0,115.053)">
			<stop offset="0" stop-color="#395eca"/>
			<stop offset="1" stop-color="#848bd8"/>
		</linearGradient>
	</defs>
	<style>
		.s0 { fill: url(#g1) } 
		.s1 { fill: url(#g2) } 
	</style>
	<g id="Layer 1">
		<g id="b8b1c7c5-b270-4bb7-8073-ba850b7399ff">
		</g>
		<g id="6e114d31-1e1a-477e-a686-ba0860f61f11">
			<path class="s0" d="m244.5 234.1h-162c-5.5 0-10-2.3-12.4-6.4-2.3-4-2-9.1 0.7-13.9l81-140.3c2.8-4.7 7.1-7.5 11.7-7.5 4.7 0 8.9 2.8 11.7 7.5l81 140.3c2.8 4.8 3 9.9 0.7 13.9-2.3 4.1-6.8 6.4-12.4 6.4zm-161.8-13.7h161.6l-80.8-139.9z"/>
			<path class="s1" d="m100.9 234.1h-86.9c-5.6 0-10.1-2.3-12.4-6.4-2.3-4-2.1-9.1 0.7-13.9l52.6-91.2c2.8-4.8 7.1-7.5 11.7-7.5 4.7 0 9 2.7 11.7 7.5l28.5 49.3-11.8 6.8-28.4-49.1-52.4 90.9h86.7zm185.1 0h-56.5v-13.7h56.3l-32.6-56.5-13.5 23.4-11.8-6.8 13.6-23.6c2.8-4.8 7-7.5 11.7-7.5 4.6 0 8.9 2.7 11.7 7.5l32.8 56.9c2.8 4.8 3 9.9 0.7 13.9-2.3 4-6.8 6.4-12.4 6.4zm-145.2-68.5q-0.8 0-1.6-0.1-0.8-0.1-1.5-0.3-0.8-0.2-1.5-0.6-0.8-0.3-1.4-0.7l-19.8-12.9 7.4-11.4 17.9 11.6 16.9-20.4c0.9-1 2-1.9 3.2-2.6 1.2-0.6 2.6-1 4-1.2 1.4-0.1 2.8 0 4.1 0.4 1.4 0.4 2.6 1.1 3.7 2l16.4 13.4 11-12 10.1 9.2-12.8 13.9c-0.9 1-2 1.8-3.3 2.4-1.2 0.6-2.6 1-3.9 1.1-1.4 0.1-2.8-0.1-4.1-0.5-1.3-0.4-2.5-1-3.6-1.9l-16.2-13.2-16.4 19.8q-0.8 1-1.7 1.7-1 0.8-2.1 1.3-1.2 0.5-2.4 0.8-1.2 0.2-2.4 0.2z"/>
		</g>
		<g id="74b6a1a8-0646-47b2-8f67-84376d6c1d8e">
		</g>
	</g>
</svg>